# xmcd CD database file
#
# Track frame offsets:
#	150
#	17855
#	43580
#	72944
#	98073
#	139023
#	165180
#	195007
#	235609
#	273563
#	298914
#
# Disc length: 4219 seconds
#
# Revision: 0
# Processed by: cddbd v1.5.2PL0 Copyright (c) Steve Scherf et al.
# Submitted via: CDex 1.51
#
DISCID=8f10790b
DTITLE=Mantra and Bahajan Singers - Mantra Delight
DYEAR=2014
DGENRE=New Age
TTITLE0=Ohm Tryambakam
TTITLE1=Asatoma Sat Gamaya
TTITLE2=Guru Brahma
TTITLE3=Ohm Nama Shivay
TTITLE4=Guru Ram Das
TTITLE5=Pavana
TTITLE6=Rama Bolo
TTITLE7=Radhe Shiam
TTITLE8=Narajana
TTITLE9=Ohm Namo
TTITLE10=Ohm Tryambakam
EXTD=YEAR: 2014
EXTT0=
EXTT1=
EXTT2=
EXTT3=
EXTT4=
EXTT5=
EXTT6=
EXTT7=
EXTT8=
EXTT9=
EXTT10=
PLAYORDER=
